# File created by Blade
# Date/Time:  Mon Sep 22 15:50:36 2014
# Frame Rate: 120.000 fps
#------------------------------------------------------
:FULLY-SPECIFIED
:DEGREES
4346
root 2.741204 36.977589 3.706633 -2.930275 9.178838 4.138640
RightUpLeg 14.983719 -12.983800 -7.691609
RightLeg -5.528136 -0.000000 0.000000
RightFoot -15.341450 -19.058480 17.512021
RightToeBase 12.489232 -0.000000 -0.000000
LeftUpLeg 9.665184 -6.348172 -1.919245
LeftLeg -2.661009 -0.000000 0.000000
LeftFoot -8.676577 10.634930 -17.016665
LeftToeBase 7.971332 -0.000000 -0.000000
Spine 8.698140 11.873066 0.573347
RightShoulder 1.218329 -33.781185 -15.326619
RightArm 15.415322 -25.987555 59.842664
RightForeArm 11.972204 0.000000 61.530419
RightHand 2.958943 -0.000000 -2.636238
RightHandThumb1 -24.326973 -0.000000 -32.862282
LeftShoulder -30.978622 34.086424 7.533521
LeftArm 51.066156 -66.700883 -79.317551
LeftForeArm -35.042380 -0.000000 95.683117
LeftHand -18.523992 -0.000000 24.653399
LeftHandThumb1 -26.253704 0.000000 33.147579
Head 3.432381 0.555566 6.174528
4347
root 2.735678 36.977258 3.711028 -3.065143 8.968582 4.099876
RightUpLeg 15.059101 -12.869748 -7.672734
RightLeg -5.505400 -0.000000 0.000000
RightFoot -15.319454 -18.972595 17.502691
RightToeBase 12.461719 -0.000000 -0.000000
LeftUpLeg 9.784900 -6.154556 -1.885134
LeftLeg -2.593783 -0.000000 0.000000
LeftFoot -8.743434 10.661061 -16.963519
LeftToeBase 7.950310 -0.000000 -0.000000
Spine 8.864834 11.560122 0.612589
RightShoulder 1.107947 -33.738186 -15.349312
RightArm 15.507174 -25.931333 59.397612
RightForeArm 11.831835 -0.000000 61.758096
RightHand 2.975665 -0.000000 -2.732271
RightHandThumb1 -24.326973 -0.000000 -32.862282
LeftShoulder -30.913892 34.203752 7.538354
LeftArm 50.416667 -66.450249 -78.685604
LeftForeArm -33.843456 -0.000000 95.081811
LeftHand -18.801932 -0.000000 24.666499
LeftHandThumb1 -26.253704 0.000000 33.147579
Head 3.047154 0.912232 6.101521
4348
root 2.727374 36.976677 3.713851 -3.197805 8.746864 4.041944
RightUpLeg 15.117123 -12.778193 -7.639023
RightLeg -5.459414 -0.000000 0.000000
RightFoot -15.275610 -18.840288 17.447990
RightToeBase 12.465283 -0.000000 -0.000000
LeftUpLeg 9.868394 -5.880440 -1.814842
LeftLeg -2.470851 -0.000000 0.000000
LeftFoot -8.828622 10.603376 -16.916286
LeftToeBase 7.919653 -0.000000 -0.000000
Spine 9.025610 11.257586 0.669901
RightShoulder 1.001521 -33.741556 -15.403983
RightArm 15.665982 -25.829417 58.924875
RightForeArm 11.669307 -0.000000 61.937870
RightHand 2.877153 -0.000000 -2.748185
RightHandThumb1 -24.326973 -0.000000 -32.862282
LeftShoulder -30.856147 34.327824 7.549659
LeftArm 49.565854 -66.072688 -77.766590
LeftForeArm -32.086348 -0.000000 94.428861
LeftHand -19.095270 0.000000 25.227025
LeftHandThumb1 -26.253704 0.000000 33.147579
Head 2.683654 1.271099 6.014601
4349
root 2.721911 36.976376 3.716534 -3.330156 8.489759 4.019235
RightUpLeg 15.180924 -12.602584 -7.627688
RightLeg -5.440497 -0.000000 0.000000
RightFoot -15.242437 -18.785663 17.379215
RightToeBase 12.487770 -0.000000 -0.000000
LeftUpLeg 9.947536 -5.527035 -1.772354
LeftLeg -2.324069 -0.000000 0.000000
LeftFoot -8.913037 10.503331 -16.874942
LeftToeBase 7.939852 -0.000000 -0.000000
Spine 9.202911 10.971697 0.676183
RightShoulder 0.892230 -33.724510 -15.434092
RightArm 15.827178 -25.768565 58.381285
RightForeArm 11.633021 -0.000000 62.144580
RightHand 2.790232 -0.000000 -2.866419
RightHandThumb1 -24.326973 -0.000000 -32.862282
LeftShoulder -30.810153 34.417072 7.581015
LeftArm 48.713275 -65.737706 -76.890029
LeftForeArm -30.812377 -0.000000 93.725729
LeftHand -19.228836 -0.000000 24.951885
LeftHandThumb1 -26.253704 0.000000 33.147579
Head 2.294271 1.565649 5.928455
4350
root 2.719948 36.975914 3.720172 -3.476750 8.234559 3.994210
RightUpLeg 15.261818 -12.468838 -7.635646
RightLeg -5.413843 -0.000000 0.000000
RightFoot -15.212185 -18.649440 17.354979
RightToeBase 12.491072 -0.000000 -0.000000
LeftUpLeg 10.094668 -5.343340 -1.758299
LeftLeg -2.277940 -0.000000 0.000000
LeftFoot -8.988608 10.561237 -16.896553
LeftToeBase 7.942686 -0.000000 -0.000000
Spine 9.390678 10.729576 0.711413
RightShoulder 0.759722 -33.697218 -15.483713
RightArm 15.925823 -25.646903 57.897369
RightForeArm 11.593992 -0.000000 62.319930
RightHand 2.698375 -0.000000 -2.806929
RightHandThumb1 -24.326973 -0.000000 -32.862282
LeftShoulder -30.678652 34.443378 7.666128
LeftArm 47.780730 -65.389912 -75.917000
LeftForeArm -29.713067 -0.000000 92.980972
LeftHand -19.303629 0.000000 24.598493
LeftHandThumb1 -26.253704 0.000000 33.147579
Head 1.919800 1.922374 5.860136
4351
root 2.715300 36.975646 3.723333 -3.615682 7.966987 3.967162
RightUpLeg 15.319950 -12.305161 -7.627265
RightLeg -5.367905 -0.000000 0.000000
RightFoot -15.205937 -18.548204 17.330991
RightToeBase 12.522293 -0.000000 -0.000000
LeftUpLeg 10.243361 -5.185069 -1.738307
LeftLeg -2.251071 -0.000000 0.000000
LeftFoot -9.048333 10.638797 -16.912301
LeftToeBase 7.918218 -0.000000 -0.000000
Spine 9.569554 10.437298 0.739393
RightShoulder 0.708534 -33.666982 -15.589809
RightArm 16.025547 -25.500529 57.409246
RightForeArm 11.434140 -0.000000 62.478934
RightHand 2.603503 0.000000 -2.696915
RightHandThumb1 -24.326973 -0.000000 -32.862282
LeftShoulder -30.662183 34.494820 7.671551
LeftArm 46.969919 -65.000654 -75.009612
LeftForeArm -28.746455 -0.000000 92.156404
LeftHand -19.260128 -0.000000 24.130395
LeftHandThumb1 -26.253704 0.000000 33.147579
Head 1.575889 2.282574 5.735717
4352
root 2.710445 36.975186 3.725626 -3.747293 7.692596 3.924273
RightUpLeg 15.380062 -12.142265 -7.601101
RightLeg -5.352800 -0.000000 0.000000
RightFoot -15.158114 -18.445661 17.287934
RightToeBase 12.537104 -0.000000 -0.000000
LeftUpLeg 10.390092 -5.037239 -1.710580
LeftLeg -2.238894 -0.000000 0.000000
LeftFoot -9.123621 10.778164 -16.888582
LeftToeBase 7.892975 -0.000000 -0.000000
Spine 9.732879 10.203339 0.775705
RightShoulder 0.574758 -33.664010 -15.619097
RightArm 16.137357 -25.327157 56.853015
RightForeArm 11.217701 -0.000000 62.623358
RightHand 2.389479 0.000000 -2.708340
RightHandThumb1 -24.326973 -0.000000 -32.862282
LeftShoulder -30.669834 34.598172 7.634690
LeftArm 46.523457 -64.597032 -74.388684
LeftForeArm -27.947194 -0.000000 91.311725
LeftHand -19.209584 -0.000000 23.584715
LeftHandThumb1 -26.253704 0.000000 33.147579
Head 1.238352 2.581017 5.644572
4353
root 2.706650 36.975041 3.730635 -3.876816 7.424397 3.903565
RightUpLeg 15.439734 -12.049896 -7.613598
RightLeg -5.313967 -0.000000 0.000000
RightFoot -15.123099 -18.280854 17.232021
RightToeBase 12.559093 -0.000000 -0.000000
LeftUpLeg 10.535613 -4.900000 -1.702918
LeftLeg -2.212716 -0.000000 0.000000
LeftFoot -9.197428 10.898621 -16.919879
LeftToeBase 7.852528 -0.000000 -0.000000
Spine 9.884023 9.915936 0.766205
RightShoulder 0.528887 -33.711323 -15.686458
RightArm 16.265605 -25.095636 56.282598
RightForeArm 11.152421 -0.000000 62.758404
RightHand 2.316783 -0.000000 -2.635635
RightHandThumb1 -24.326973 -0.000000 -32.862282
LeftShoulder -30.678912 34.667565 7.614961
LeftArm 45.995768 -64.228022 -73.697753
LeftForeArm -27.158040 0.000000 90.459213
LeftHand -19.320591 -0.000000 22.958421
LeftHandThumb1 -26.253704 0.000000 33.147579
Head 0.930892 2.881890 5.541947
4354
root 2.704820 36.974936 3.732588 -4.005162 7.150248 3.876778
RightUpLeg 15.490033 -11.930965 -7.616080
RightLeg -5.277833 -0.000000 0.000000
RightFoot -15.084197 -18.128888 17.204858
RightToeBase 12.553786 -0.000000 -0.000000
LeftUpLeg 10.680779 -4.766679 -1.692504
LeftLeg -2.197977 -0.000000 0.000000
LeftFoot -9.270870 11.017714 -16.947160
LeftToeBase 7.832368 -0.000000 -0.000000
Spine 10.041558 9.682060 0.779177
RightShoulder 0.449276 -33.691318 -15.753853
RightArm 16.303964 -24.867226 55.762636
RightForeArm 11.097592 -0.000000 62.847810
RightHand 2.281294 -0.000000 -2.473945
RightHandThumb1 -24.326973 -0.000000 -32.862282
LeftShoulder -30.635868 34.732389 7.602340
LeftArm 45.427448 -63.845631 -72.932833
LeftForeArm -26.250414 -0.000000 89.651891
LeftHand -19.634776 -0.000000 22.438412
LeftHandThumb1 -26.253704 0.000000 33.147579
Head 0.603695 3.221471 5.488187
4355
root 2.702030 36.975616 3.732231 -4.094662 6.868477 3.849605
RightUpLeg 15.494506 -11.810554 -7.608598
RightLeg -5.242862 -0.000000 0.000000
RightFoot -15.049910 -17.981241 17.168932
RightToeBase 12.625039 -0.000000 -0.000000
LeftUpLeg 10.788054 -4.606923 -1.674606
LeftLeg -2.193880 -0.000000 0.000000
LeftFoot -9.326514 11.136733 -16.953012
LeftToeBase 7.813276 -0.000000 -0.000000
Spine 10.131316 9.450525 0.783472
RightShoulder 0.381119 -33.661050 -15.815035
RightArm 16.332275 -24.662139 55.211042
RightForeArm 11.130003 0.000000 62.914284
RightHand 2.170063 -0.000000 -2.286032
RightHandThumb1 -24.326973 -0.000000 -32.862282
LeftShoulder -30.560990 35.100399 7.459848
LeftArm 45.292397 -63.677904 -72.634301
LeftForeArm -25.528121 0.000000 88.850337
LeftHand -19.738969 -0.000000 21.817716
LeftHandThumb1 -26.253704 0.000000 33.147579
Head 0.362840 3.431331 5.374893
